<svg id="Capa_1" enable-background="new 0 0 512 512" height="512" viewBox="0 0 512 512" width="512" xmlns="http://www.w3.org/2000/svg"><g><g><path d="m276.9 415.729c-4.057 0-7.797-2.562-9.291-6.327-1.536-3.871-.443-8.451 2.698-11.198 3.231-2.826 8.05-3.257 11.731-1.053 3.56 2.131 5.472 6.368 4.682 10.449-.9 4.644-5.077 8.129-9.82 8.129z"/><path d="m487.5 273.65c-1.052-2.435-3.028-4.353-5.493-5.33-33.316-13.212-56.275-7.123-69.67.312-.755.419-1.49.848-2.204 1.283-2.915-11.223-10.237-22.046-21.756-31.824-14.646-12.434-31.236-19.282-31.936-19.567-2.471-1.01-5.244-.989-7.7.058s-4.392 3.032-5.376 5.514l-8.306 20.941c-11.587 29.219-5.874 60.887 13.954 82.089-12.31 8.434-26.859 12.971-42.106 12.971h-31.479l11.851-23.702c1.55-3.1 1.384-6.781-.438-9.729s-5.041-4.743-8.506-4.743h-62.115c-23.508 0-43.689 16.154-49.486 38.174h-17.688c-17.868 0-34.66 6.957-47.275 19.584-12.633 12.622-19.59 29.413-19.59 47.281 0 36.869 29.996 66.865 66.865 66.865h17.217c2.234 9.971 7.525 18.897 15.308 25.645 9.32 8.079 21.625 12.528 34.649 12.528h62.115c3.502 0 6.749-1.832 8.56-4.83 1.811-2.997 1.921-6.724.292-9.824l-15.183-28.876c59.877-14.952 108.018-59.87 127.501-117.831 3.147.395 6.301.591 9.445.591 12.336 0 24.497-3.023 35.361-8.919 15.705-8.522 28.136-22.751 35.002-40.065l8.306-20.942c.975-2.466.933-5.219-.119-7.654zm-271.282 48.273h45.935l-9.087 18.174h-65.168c4.961-10.746 15.875-18.174 28.32-18.174zm-114.039 85.039c0-12.522 4.875-24.289 13.732-33.139 8.844-8.852 20.611-13.727 33.133-13.727h36.496c-6.045 20.742-25.277 35.788-47.715 35.788-5.523 0-10 4.478-10 10s4.477 10 10 10c23.529 0 43.087 16 48.314 37.942h-37.095c-25.841.001-46.865-21.022-46.865-46.864zm114.039 85.038c-13.538 0-24.621-7.266-29.062-18.173h41.097c7.856 0 15.596-.505 23.189-1.482l10.335 19.655zm12.035-38.173h-21.723c-2.441-14.431-9.361-27.703-20.007-38.104h44.99c5.523 0 10-4.478 10-10s-4.477-10-10-10h-44.723c9.631-9.512 16.529-21.812 19.333-35.627h100.783c25.297 0 49.08-9.851 66.966-27.737 0-.001 0-.001 0-.001l12.833-12.836c-12.589 76.089-78.851 134.305-158.452 134.305zm162.525-166.667-26.737 26.744c-14.901-15.602-19.152-39.402-10.391-61.495l4.319-10.891c13.835 7.576 38.022 24.196 32.809 45.642zm69.941 7.712c-9.512 23.985-31.751 38.039-55.856 36.219 2.319-10.825 3.664-22.006 3.941-33.448 4.358-6.044 20.882-24.226 56.363-13.986z"/><path d="m362.956 38.173h-17.217c-2.234-9.971-7.525-18.898-15.308-25.645-9.321-8.079-21.626-12.528-34.649-12.528h-62.115c-3.502 0-6.749 1.832-8.56 4.83-1.811 2.997-1.921 6.724-.292 9.824l15.183 28.876c-59.877 14.952-108.018 59.87-127.502 117.832-15.503-1.944-31.172.93-44.805 8.327-15.705 8.522-28.136 22.751-35.002 40.065l-8.306 20.942c-.978 2.465-.936 5.218.116 7.652 1.052 2.435 3.028 4.353 5.493 5.33 33.314 13.211 56.275 7.123 69.67-.312.755-.419 1.49-.848 2.204-1.283 2.915 11.223 10.237 22.046 21.756 31.824 14.646 12.434 31.236 19.282 31.936 19.567 1.212.495 2.496.742 3.78.742 1.334 0 2.668-.267 3.919-.8 2.456-1.047 4.392-3.032 5.376-5.514l8.306-20.941c11.587-29.219 5.874-60.887-13.954-82.089 12.31-8.434 26.859-12.971 42.106-12.971h31.479l-11.851 23.702c-1.55 3.1-1.384 6.781.438 9.729s5.041 4.743 8.506 4.743h62.115c23.508 0 43.689-16.154 49.486-38.174h17.688c17.868 0 34.66-6.957 47.275-19.584 12.633-12.622 19.59-29.413 19.59-47.281.004-36.867-29.992-66.863-66.861-66.863zm-112.733-18.173h45.559c13.538 0 24.621 7.266 29.062 18.173h-41.097c-7.856 0-15.596.505-23.189 1.482zm-203.39 208.343 4.448-11.215c9.512-23.985 31.752-38.037 55.856-36.219-2.319 10.825-3.664 22.006-3.94 33.448-4.359 6.044-20.882 24.227-56.364 13.986zm111.517 31.248-4.319 10.891c-13.834-7.576-38.021-24.196-32.808-45.641l26.737-26.744c14.899 15.601 19.151 39.401 10.39 61.494zm-20.222-79.95c0 .001-.001.001 0 0l-12.833 12.837c12.589-76.089 78.851-134.305 158.452-134.305h21.723c2.441 14.431 9.361 27.703 20.007 38.104h-81.819c-5.523 0-10 4.478-10 10s4.477 10 10 10h81.551c-9.631 9.512-16.529 21.812-19.333 35.627h-100.782c-25.298-.001-49.08 9.85-66.966 27.737zm157.654 10.436h-45.935l9.087-18.174h65.168c-4.961 10.746-15.875 18.174-28.32 18.174zm100.307-51.9c-8.844 8.852-20.611 13.727-33.133 13.727h-36.496c6.045-20.742 25.277-35.788 47.715-35.788 5.523 0 10-4.478 10-10s-4.477-10-10-10c-23.529 0-43.087-16-48.314-37.942h37.095c25.842 0 46.865 21.023 46.865 46.865 0 12.522-4.875 24.288-13.732 33.138z"/></g></g></svg>