<?xml version="1.0" encoding="iso-8859-1"?>
<!-- Generator: Adobe Illustrator 19.0.0, SVG Export Plug-In . SVG Version: 6.00 Build 0)  -->
<svg version="1.1" id="Layer_1" xmlns="http://www.w3.org/2000/svg" xmlns:xlink="http://www.w3.org/1999/xlink" x="0px" y="0px"
	 viewBox="0 0 512 512" style="enable-background:new 0 0 512 512;" xml:space="preserve">
<circle style="fill:#F75534;" cx="256" cy="223.357" r="135.837"/>
<path style="fill:#BD391E;" d="M274.808,352.231c-75.021,0-135.837-60.816-135.837-135.837c0-54.88,32.549-102.154,79.392-123.584
	c-56.712,16.319-98.201,68.587-98.201,130.55c0,75.021,60.816,135.837,135.837,135.837c20.14,0,39.254-4.389,56.444-12.252
	C300.493,350.384,287.866,352.231,274.808,352.231z"/>
<path style="fill:#7FB2F0;" d="M460.069,433.006H51.931c-4.336,0-5.81-5.768-2.017-7.847
	c36.279-19.801,131.009-74.585,186.744-135.158c0.794-0.867,1.902-1.348,3.062-1.348h32.559c1.16,0,2.267,0.481,3.062,1.348
	c55.735,60.573,150.465,115.357,186.744,135.158C465.878,427.238,464.405,433.006,460.069,433.006z"/>
<path style="fill:#F7EDE3;" d="M270.409,168.396c0,23.583-19.132,42.705-42.715,42.705H86.444c0,0-51.357,3.688-51.357-33.186
	c0-0.888-0.094-1.787-0.094-2.696c0-19.905,16.133-36.049,36.049-36.049c3.082,0,6.06,0.387,8.913,1.118
	c3.072-19.864,20.25-35.067,40.981-35.067c3.897,0,7.649,0.554,11.222,1.546c5.538-21.044,28.912-38.787,56.414-35.129
	c27.052,3.594,46.885,31.211,43.144,54.105c-0.01,0.042-0.01,0.094-0.021,0.136c9.394,0.867,17.899,4.786,24.534,10.731
	C264.934,144.436,270.409,155.773,270.409,168.396z"/>
<g>
	<path style="fill:#DBD2CA;" d="M53.892,180.473c0-0.822-0.087-1.65-0.087-2.489c0-17.288,15.727-31.256,33.973-28.068
		c1.89,0.33,3.693-0.879,4.151-2.742c4.661-18.965,25.153-31.54,44.607-28.074c1.738,0.309,3.454-0.613,4.094-2.258
		c9.739-25.029,30.514-37.742,54.968-34.49c14.558,1.936,26.839,11.409,33.878,23.158c-6.031-16.552-21.627-31.305-40.9-33.868
		c-27.502-3.657-50.876,14.085-56.414,35.129c-3.574-0.993-7.325-1.546-11.222-1.546c-20.731,0-37.909,15.203-40.981,35.067
		c-2.853-0.731-5.831-1.118-8.913-1.118c-19.916,0-36.049,16.144-36.049,36.049c0,0.909,0.094,1.806,0.094,2.696
		c0,36.867,51.357,33.186,51.357,33.186h7.317C80.386,210.441,53.892,205.917,53.892,180.473z"/>
	<path style="fill:#DBD2CA;" d="M95.877,113.659c-0.259,0.196-0.519,0.391-0.774,0.594c0.213,0.05,0.431,0.089,0.643,0.143
		C95.784,114.149,95.835,113.905,95.877,113.659z"/>
</g>
<path style="fill:#F7EDE3;" d="M492.944,257.177c0,23.583-19.132,42.705-42.715,42.705H308.979c0,0-51.357,3.681-51.357-33.186
	c0-0.89-0.094-1.787-0.094-2.696c0-19.905,16.133-36.049,36.049-36.049c3.082,0,6.06,0.387,8.913,1.118
	c3.072-19.863,20.25-35.067,40.981-35.067c3.897,0,7.649,0.554,11.222,1.546c5.538-21.044,28.912-38.787,56.414-35.129
	c27.105,3.605,46.958,31.316,43.123,54.241C475.944,216.676,492.944,234.931,492.944,257.177z"/>
<path style="fill:#DBD2CA;" d="M319.607,201.559c-0.971,0.684-1.91,1.41-2.817,2.172c0.775,0.145,1.543,0.311,2.302,0.506
	C319.231,203.333,319.41,202.443,319.607,201.559z"/>
<path style="fill:#5F95D4;" d="M256,288.653c-56.163,60.082-122.253,115.722-179.331,144.353H51.931
	c-4.336,0-5.81-5.768-2.017-7.847c36.279-19.801,131.009-74.585,186.744-135.158c0.794-0.867,1.902-1.348,3.062-1.348L256,288.653
	L256,288.653z"/>
<path style="fill:#F7EDE3;" d="M380.75,376.048c-4.859,8.161-9.237,17.115-18.85,17.115c-17.648,0-17.648-30.177-35.286-30.177
	c-17.648,0-17.648,30.177-35.297,30.177c-17.659,0-17.659-30.177-35.297-30.177c-17.648,0-17.648,30.177-35.297,30.177
	c-17.659,0-17.659-30.177-35.297-30.177c-2.351,0-4.389,0.533-6.196,1.473c-1.818,0.93-3.417,2.267-4.859,3.856
	c-7.858,8.662-11.316,24.848-24.242,24.848c-2.56,0-4.744-0.637-6.666-1.724c-0.167-0.094-0.334-0.199-0.502-0.313
	c-5.026-3.082-8.234-9.3-11.682-15.099c36.509-24.325,76.267-54.387,105.378-86.026c0.794-0.857,1.902-1.348,3.062-1.348h32.559
	c1.16,0,2.267,0.491,3.062,1.348C304.462,321.651,344.231,351.723,380.75,376.048z"/>
<g>
	<path style="fill:#DBD2CA;" d="M256.23,136.61c-9.718-4.044-22.434-4.232-34.022,0.899c-7.889,3.5-14.179,9.947-17.575,17.889
		c-5.872,13.74-3.981,27.209,2.591,37.376c0.627,0.961-0.564,2.069-1.463,1.358c-13.019-10.282-19.205-28.839-10.585-47.752
		c3.396-7.429,9.425-13.375,16.875-16.718c6.541-2.936,13.26-4.138,19.665-3.918c-0.01,0.042-0.01,0.094-0.021,0.136
		C241.089,126.746,249.595,130.665,256.23,136.61z"/>
	<path style="fill:#DBD2CA;" d="M276.424,269.25c0-0.822-0.087-1.65-0.087-2.489c0-17.288,15.727-31.256,33.973-28.068
		c1.89,0.33,3.693-0.879,4.151-2.742c4.661-18.965,25.153-31.54,44.607-28.074c1.738,0.309,3.454-0.613,4.094-2.258
		c9.74-25.029,30.514-37.742,54.968-34.49c14.558,1.936,26.839,11.409,33.878,23.158c-6.031-16.552-21.627-31.305-40.9-33.868
		c-27.502-3.657-50.876,14.085-56.414,35.129c-3.574-0.993-7.325-1.546-11.222-1.546c-20.731,0-37.909,15.203-40.981,35.067
		c-2.853-0.731-5.831-1.118-8.913-1.118c-19.916,0-36.049,16.144-36.049,36.049c0,0.909,0.094,1.806,0.094,2.696
		c0,36.867,51.357,33.186,51.357,33.186h7.317C302.918,299.219,276.424,294.696,276.424,269.25z"/>
	<path style="fill:#DBD2CA;" d="M478.762,225.389c-9.718-4.044-22.434-4.232-34.022,0.899c-7.889,3.5-14.179,9.947-17.575,17.889
		c-5.872,13.74-3.981,27.209,2.591,37.376c0.627,0.961-0.564,2.069-1.463,1.358c-13.019-10.282-19.205-28.839-10.585-47.752
		c3.396-7.429,9.425-13.375,16.875-16.718c6.541-2.936,13.26-4.138,19.665-3.918c-0.01,0.042-0.01,0.094-0.021,0.136
		C463.621,215.525,472.127,219.443,478.762,225.389z"/>
	<path style="fill:#DBD2CA;" d="M256,288.653c-35.328,37.784-74.574,73.822-113.037,102.473c-5.026-3.082-8.234-9.3-11.682-15.099
		c36.509-24.325,76.267-54.387,105.378-86.026c0.794-0.857,1.902-1.348,3.062-1.348L256,288.653L256,288.653z"/>
</g>
<path style="fill:#5F95D4;" d="M504.163,440.842H7.837c-4.328,0-7.837-3.509-7.837-7.837s3.509-7.837,7.837-7.837h496.327
	c4.328,0,7.837,3.509,7.837,7.837S508.491,440.842,504.163,440.842z"/>
<g>
</g>
<g>
</g>
<g>
</g>
<g>
</g>
<g>
</g>
<g>
</g>
<g>
</g>
<g>
</g>
<g>
</g>
<g>
</g>
<g>
</g>
<g>
</g>
<g>
</g>
<g>
</g>
<g>
</g>
</svg>
