<svg id="Layer_1" enable-background="new 0 0 512.097 512.097" height="512" viewBox="0 0 512.097 512.097" width="512" xmlns="http://www.w3.org/2000/svg"><path d="m335.597 480.097h-31.548v-129.463c0-6.845-5.716-12.271-12.555-11.987-32.895 1.364-57.203-2.94-74.791-8.933-8.04-2.74-16.344 3.438-15.903 11.92 2.743 52.807 13.292 109.364 19.356 138.463h-43.654c-8.616 0-16.029 6.621-16.434 15.227-.432 9.188 6.889 16.773 15.982 16.773h160c9.093 0 16.414-7.584 15.982-16.773-.406-8.606-7.819-15.227-16.435-15.227z"/><circle cx="384.049" cy="336.097" r="16"/><circle cx="128.049" cy="304.097" r="16"/><circle cx="448.049" cy="368.097" r="16"/><circle cx="352.049" cy="400.097" r="16"/><path d="m125.64 87.683.013-.008c-.078-.146-.629-.986-.013.008z"/><path d="m483.229 123.564c33.932-52.241-3.197-123.467-67.18-123.467-28.781 0-55.811 15.477-70.145 41.577-24.123-11.755-52.203-12.636-76.891-2.96-27.39-36.842-76.391-48.49-116.964-29.879-65.768-30.169-140.056 20.913-135.837 92.76-30.655 34.483-15.47 88.148 26.71 102.921 20.7 39.71 65.339 58.984 107.355 48.983 15.645 18.775 37.975 30.991 62.315 33.91 10.351 9.122 35.271 24.535 76.364 11.525 31.494 10.831 66.768 4.397 92.669-17.222 63.094 24.182 130.424-22.686 130.424-89.616 0-25.933-10.563-50.611-28.82-68.532zm-228.758 87.351c-1.741 7.36-8.309 12.319-15.557 12.32-10.32 0-17.963-9.629-15.584-19.688 2.402-10.155 3.944-18.933 4.892-26.51-17.142.107-35.897-3.584-54.29-11.563-26.753 8.76-53.538 24.278-53.825 24.445-7.656 4.459-17.442 1.843-21.878-5.765-4.45-7.632-1.875-17.424 5.755-21.877.92-.537 15.774-9.153 35.128-17.622-13.321-10.347-42.16-39.206-40.655-40.145-6.554-10.562 1-24.414 13.591-24.414 5.533 0 10.41 2.81 13.283 7.08.432.579 3.691 4.781 14.859 15.506 11.629-16.401 33.07-37.326 67.275-38.575 8.849-.343 16.251 6.575 16.573 15.405.322 8.831-6.575 16.251-15.406 16.573-22.807.833-36.964 16.604-44.095 27.57 18.66 13.006 41.356 21.725 64.085 21.407-1.273-8.338-2.858-9.169-1.764-7.91.199-.13-2.809-3.013-2.809-9.056 0-15.671 20.298-21.976 29.187-9.053l.004-.002c14.15 20.809 7.044 67.302 1.231 91.874zm188.67-7.886c-14.534 13.979-34.416 21.068-59.092 21.068-43.561 0-66.405 10.854-70.542 13.031-11.543 6.067-25.086-3.543-23.279-16.375 1.36-9.772 20.373-38.109 38.006-55.694-14.039-9.302-32.469-25.302-39.487-48.291-2.58-8.451 2.18-17.394 10.631-19.974 8.456-2.585 17.395 2.181 19.974 10.632 5.674 18.586 25.94 31.152 34.787 35.87 11.162-7.846 19.77-12.123 22.564-13.432 2.808-1.727 22.25-14.94 23.354-50.268.276-8.833 7.672-15.755 16.492-15.492 8.832.276 15.768 7.66 15.492 16.492-1.771 56.68-38.977 76.838-40.56 77.669-17.142 8.976-32.432 19.834-47.52 36.813 11.291-1.787 24.612-2.982 40.087-2.982 16.122 0 28.54-4.081 36.908-12.131 6.369-6.126 16.498-5.929 22.623.439 6.127 6.37 5.931 16.499-.438 22.625z"/></svg>