<?xml version="1.0" encoding="iso-8859-1"?>
<!-- Generator: Adobe Illustrator 19.0.0, SVG Export Plug-In . SVG Version: 6.00 Build 0)  -->
<svg version="1.1" id="Layer_1" xmlns="http://www.w3.org/2000/svg" xmlns:xlink="http://www.w3.org/1999/xlink" x="0px" y="0px"
	 viewBox="0 0 512 512" style="enable-background:new 0 0 512 512;" xml:space="preserve">
<path style="fill:#DBD2CA;" d="M348.677,28.877V46.49H163.366V28.877L177.347,0.6c0.182-0.367,0.557-0.6,0.967-0.6h155.51
	c0.411,0,0.787,0.234,0.968,0.603L348.677,28.877z"/>
<path style="fill:#FCB5A6;" d="M348.677,46.49v461.199c0,2.381-1.93,4.311-4.311,4.311H167.677c-2.381,0-4.311-1.93-4.311-4.311
	V46.49H348.677z"/>
<path style="fill:#F78972;" d="M182.769,46.49V512h-15.09c-2.381,0-4.311-1.93-4.311-4.311V46.49H182.769z"/>
<path style="fill:#FCB5A6;" d="M163.36,28.877v182.919l-28.101,114.147c-0.549,2.23-2.749,3.638-5.004,3.203L27.42,309.275
	c-2.536-0.491-4.075-3.087-3.287-5.547l81.826-255.746c0.308-0.964,0.947-1.789,1.801-2.33l26.517-16.775
	C134.278,28.877,163.36,28.877,163.36,28.877z"/>
<path style="fill:#F78972;" d="M168.768,28.877l-44.643,30.268L42.189,312.132l-14.77-2.857c-2.536-0.491-4.075-3.087-3.287-5.547
	l81.827-255.746c0.308-0.964,0.947-1.789,1.801-2.33l26.517-16.775C134.278,28.877,168.768,28.877,168.768,28.877z"/>
<path style="fill:#FCB5A6;" d="M487.868,303.627c0.798,2.496-0.795,5.121-3.378,5.564l-90.568,15.515l-25.983,4.454
	c-2.422,0.415-4.701-1.275-5.006-3.713l-14.261-113.652V28.877h29.092l26.508,16.775c0.855,0.541,1.492,1.366,1.801,2.329
	L487.868,303.627z"/>
<path style="fill:#F78972;" d="M368.074,211.796V28.877h-19.402v182.919l14.26,113.651c0.306,2.438,2.585,4.128,5.006,3.713
	l14.548-2.494L368.074,211.796z"/>
<g>
	<path style="fill:#7FB2F0;" d="M348.677,412.058v95.631c0,2.381-1.93,4.311-4.311,4.311H167.677c-2.381,0-4.311-1.93-4.311-4.311
		v-95.631c0.323-0.032,0.656-0.043,0.991-0.043c15.269,0,15.269,26.15,30.55,26.15c15.269,0,15.269-26.15,30.55-26.15
		s15.281,26.15,30.55,26.15c15.281,0,15.281-26.15,30.55-26.15c15.281,0,15.281,26.15,30.56,26.15
		c15.269,0,15.269-26.15,30.55-26.15C348.01,412.015,348.354,412.025,348.677,412.058z"/>
	<path style="fill:#7FB2F0;" d="M281.438,438.164c9.318,0,12.956-9.72,17.837-17.308c-3.125-4.856-6.758-8.842-12.721-8.842
		c-9.311,0-12.947,9.72-17.829,17.308C271.849,434.178,275.48,438.164,281.438,438.164z"/>
	<path style="fill:#7FB2F0;" d="M342.548,438.164c2.374,0,4.378-0.633,6.129-1.701v-24.406c-0.323-0.032-0.668-0.043-1.012-0.043
		c-9.318,0-12.956,9.72-17.837,17.309C332.953,434.178,336.586,438.164,342.548,438.164z"/>
</g>
<path style="fill:#5F95D4;" d="M182.774,430.22V512h-15.09c-2.381,0-4.311-1.93-4.311-4.311v-95.631
	c0.312-0.032,0.647-0.043,0.981-0.043C174.032,412.015,177.578,422.524,182.774,430.22z"/>
<path style="fill:#7FB2F0;" d="M220.339,438.164c9.313,0,12.949-9.724,17.833-17.314c-3.123-4.854-6.756-8.836-12.716-8.836
	c-9.317,0-12.956,9.72-17.837,17.308C210.743,434.178,214.377,438.164,220.339,438.164z"/>
<path style="fill:#F7EDE3;" d="M320.636,172.797H253.3L134.279,28.877l16.222-10.8l26.332-17.538c0.46-0.306,1.076-0.215,1.428,0.21
	L320.636,172.797z"/>
<path style="fill:#5F95D4;" d="M182.774,430.22V512h-15.09c-2.381,0-4.311-1.93-4.311-4.311v-95.631
	c0.312-0.032,0.647-0.043,0.981-0.043C174.032,412.015,177.578,422.524,182.774,430.22z"/>
<polygon style="fill:#DBD2CA;" points="278.286,172.797 253.3,172.797 134.279,28.877 150.501,18.077 "/>
<path style="fill:#F7EDE3;" d="M335.302,0.538l42.562,28.338L258.839,172.795h-67.333L333.874,0.748
	C334.226,0.323,334.842,0.232,335.302,0.538z"/>
<path style="fill:#DBD2CA;" d="M191.506,172.797h24.986l134.06-162.105L335.305,0.538c-0.46-0.306-1.076-0.215-1.428,0.21
	L191.506,172.797z"/>
<rect x="163.359" y="171.489" style="fill:#7FB2F0;" width="185.313" height="117.875"/>
<rect x="163.37" y="171.489" style="fill:#5F95D4;" width="19.402" height="117.875"/>
<rect x="163.37" y="209.314" style="fill:#F7EDE3;" width="185.313" height="37.982"/>
<rect x="163.37" y="209.314" style="fill:#DBD2CA;" width="19.402" height="37.982"/>
<g>
</g>
<g>
</g>
<g>
</g>
<g>
</g>
<g>
</g>
<g>
</g>
<g>
</g>
<g>
</g>
<g>
</g>
<g>
</g>
<g>
</g>
<g>
</g>
<g>
</g>
<g>
</g>
<g>
</g>
</svg>
